<?xml version="1.0" encoding="utf-8"?>
<!-- Generator: Adobe Illustrator 16.0.0, SVG Export Plug-In . SVG Version: 6.00 Build 0)  -->
<!DOCTYPE svg PUBLIC "-//W3C//DTD SVG 1.1//EN" "http://www.w3.org/Graphics/SVG/1.1/DTD/svg11.dtd">
<svg version="1.1" id="Layer_1" xmlns="http://www.w3.org/2000/svg" xmlns:xlink="http://www.w3.org/1999/xlink" x="0px" y="0px"
	 width="589.4px" height="108.26px" viewBox="0 0 589.4 108.26" enable-background="new 0 0 589.4 108.26" xml:space="preserve">
<g>
	<path fill="#EE6E23" d="M119.111,80.542h-10.336V52.191v-4.51v-4.51c-1.292,1.289-2.584,2.577-3.23,3.221l-5.814,4.51l-4.522-6.443
		l15.504-12.242h8.398V80.542z"/>
	<path fill="#EE6E23" d="M155.933,32.217h10.336l-16.15,48.325h-10.982l-16.796-48.325h10.336l9.044,28.35
		c0.646,1.934,1.292,3.866,1.938,5.799c0.646,2.579,0.646,3.867,0.646,5.155c0.646-1.934,1.292-5.799,2.584-10.954L155.933,32.217z"
		/>
	<path fill="#EE6E23" d="M171.438,34.15c0-3.222,1.938-5.155,5.168-5.155c3.875,0,5.814,1.933,5.814,5.155
		c0,1.289-0.646,2.577-1.292,3.221c-1.292,1.289-2.584,1.289-4.521,1.289C173.375,38.66,171.438,37.371,171.438,34.15L171.438,34.15
		z M181.774,80.542h-9.69V43.815h9.69V80.542z M207.614,50.258c-1.938,0-3.876,0.644-5.168,1.933
		c-1.292,1.289-1.938,3.222-1.938,5.799h14.212c0-2.577-0.646-4.51-1.938-5.799C211.489,50.902,209.552,50.258,207.614,50.258
		L207.614,50.258z M208.906,81.186c-5.814,0-10.336-1.933-13.566-5.155c-3.229-3.221-5.168-7.732-5.168-14.174
		c0-5.8,1.292-10.31,4.522-14.176c3.23-3.222,7.106-5.154,12.92-5.154c5.168,0,9.043,1.933,12.274,4.51
		c2.583,3.221,3.876,7.087,3.876,12.241v5.155h-23.256c0,2.577,0.646,5.154,2.584,6.444c1.292,1.933,3.875,2.576,6.46,2.576
		c1.938,0,4.522,0,6.459-0.644c1.938-0.645,3.876-1.289,5.814-2.577v7.73c-1.292,1.29-3.229,1.935-5.168,2.578
		C214.074,80.542,212.135,81.186,208.906,81.186L208.906,81.186z M261.231,80.542l-2.583-12.887l-3.876-16.753h-0.646l-6.461,29.64
		h-10.981l-10.336-36.727h9.69l4.522,16.108c0.646,2.577,1.292,7.087,1.938,11.598l0,0c0.647-1.288,0.647-3.866,1.292-7.731
		l0.646-2.579l4.522-17.396h10.982l4.522,17.396c0,0.646,0,1.29,0.646,1.935c0,1.288,0,1.933,0,3.221
		c0.646,0.645,0.646,1.933,0.646,3.222c0,0.646,0.646,1.934,0.646,1.934l0,0c0-1.288,0.646-3.223,1.292-6.443
		c0-2.577,0.646-4.511,0.646-5.154l4.522-16.108h9.69l-10.336,36.727H261.231z"/>
	<path fill="#3E4D70" d="M318.726,80.542l-3.229-11.597h-17.442l-3.876,11.597h-10.982l17.443-48.325h12.272l16.796,48.325H318.726z
		 M312.911,60.567c-3.229-10.953-5.168-16.752-5.168-18.041c-0.646-1.289-0.646-2.578-1.292-3.222
		c-0.646,3.222-2.583,9.665-5.813,21.262H312.911z"/>
	<path fill="#3E4D70" d="M369.113,80.542h-9.689V58.634c0-2.577-0.646-4.51-1.938-5.799c-0.646-1.289-1.938-1.934-4.522-1.934
		s-4.521,0.645-5.813,2.578c-1.292,1.933-1.938,5.155-1.938,9.666v17.396h-9.69V43.815h7.106l1.938,4.51l0,0
		c1.291-1.934,3.229-3.222,5.167-3.866c1.938-1.289,3.876-1.933,6.461-1.933c4.521,0,7.752,1.289,9.689,3.865
		c1.938,1.934,3.229,5.799,3.229,9.666V80.542z"/>
	<path fill="#3E4D70" d="M402.705,80.542l-1.938-5.154l0,0c-1.938,1.933-3.229,3.221-5.167,4.511
		c-1.939,0.644-3.877,1.288-7.106,1.288c-3.23,0-6.461-1.288-8.398-3.223c-1.938-1.933-3.229-5.153-3.229-9.019
		c0-3.867,1.938-6.444,4.521-8.378c2.583-1.933,6.46-2.577,12.273-3.222h6.46v-1.288c0-3.866-1.938-5.799-5.814-5.799
		c-3.229,0-6.459,0.644-10.336,2.578l-3.229-7.088c3.877-1.933,9.044-3.221,14.213-3.221c4.521,0,8.397,1.289,10.982,3.221
		c2.583,2.578,3.875,5.799,3.875,10.31v24.484H402.705z M400.121,63.145h-3.875c-3.23,0-5.169,0.645-6.461,1.933
		c-1.938,0.645-2.583,2.577-2.583,4.51c0,2.578,1.938,3.866,5.167,3.866c2.585,0,3.877-0.644,5.814-1.933
		c1.292-1.288,1.938-3.223,1.938-5.155V63.145z"/>
	<rect x="420.147" y="28.995" fill="#3E4D70" width="10.336" height="51.546"/>
	<path fill="#3E4D70" d="M435.652,43.815h10.981l7.105,20.618c0.646,1.289,0.646,3.865,1.292,5.8l0,0c0-1.935,0.646-3.867,1.293-5.8
		l7.105-20.618h10.336l-15.504,41.236c-1.292,3.867-3.23,6.444-5.814,8.377c-2.583,1.934-5.813,3.222-9.689,3.222
		c-1.292,0-3.23-0.644-4.521-0.644v-8.377c0.646,0.645,1.938,0.645,3.875,0.645c1.292,0,3.229-0.645,4.522-1.29
		c1.292-1.288,2.584-3.221,3.23-5.153l0.646-1.933L435.652,43.815z"/>
	<path fill="#3E4D70" d="M495.083,72.81c1.292,0,3.877,0,5.814-1.289v7.732c-1.938,1.288-5.168,1.933-9.044,1.933
		c-3.875,0-7.106-1.288-8.398-3.223c-1.938-1.933-3.229-5.153-3.229-9.019V50.902h-4.522v-3.865l5.169-3.866l3.229-7.732h6.46v8.376
		h10.336v7.087h-10.336v18.043c0,1.288,0,2.576,1.292,3.221C492.5,72.81,493.791,72.81,495.083,72.81L495.083,72.81z"/>
	<path fill="#3E4D70" d="M508.004,34.15c0-3.222,1.938-5.155,5.813-5.155c3.229,0,5.169,1.933,5.169,5.155
		c0,1.289-0.646,2.577-1.292,3.221c-0.647,1.289-1.939,1.289-3.877,1.289C509.942,38.66,508.004,37.371,508.004,34.15L508.004,34.15
		z M518.34,80.542h-9.689V43.815h9.689V80.542z"/>
	<path fill="#3E4D70" d="M544.18,81.186c-11.628,0-17.442-6.443-17.442-19.329c0-5.8,1.938-10.955,5.169-14.176
		c2.583-3.222,7.106-5.154,12.919-5.154c4.523,0,8.398,1.289,11.628,2.577l-3.229,7.732c-1.292-0.645-2.584-0.645-3.875-1.289
		c-1.294-0.645-3.231-0.645-4.523-0.645c-5.167,0-7.752,3.866-7.752,10.955c0,7.088,2.585,10.953,7.752,10.953
		c1.938,0,3.877,0,5.814-0.645c1.292-0.645,3.23-1.288,4.521-2.578v8.376c-1.291,1.29-3.229,1.935-4.521,2.578
		C548.702,80.542,546.764,81.186,544.18,81.186L544.18,81.186z"/>
	<path fill="#3E4D70" d="M589.4,69.587c0,3.223-1.293,6.443-3.877,8.376c-2.584,1.935-6.46,3.223-11.628,3.223
		c-2.583,0-5.167-0.645-7.106-0.645c-1.938-0.644-3.229-1.288-5.167-1.934v-8.375c1.938,1.288,3.876,1.933,6.459,2.577
		c2.585,0.644,4.522,0.644,5.814,0.644c3.876,0,5.814-0.644,5.814-3.221c0-0.646,0-1.288-0.646-1.935
		c-0.646,0-1.292-0.644-2.584-1.288s-2.584-1.288-4.521-2.577c-3.229-1.288-5.169-1.933-6.46-3.223
		c-1.292-0.644-2.584-1.933-3.23-3.221c0-1.288-0.646-3.222-0.646-5.154c0-3.222,1.292-5.799,3.876-7.088
		c2.583-1.933,5.814-3.221,10.981-3.221c4.522,0,8.398,1.289,12.921,3.221l-3.23,7.088c-1.938-0.645-3.876-1.289-5.168-1.934
		c-1.292-0.644-3.23-0.644-5.168-0.644c-2.584,0-4.521,0.644-4.521,2.578c0,0.644,0.646,1.289,1.938,1.933
		c0.646,0.645,2.584,1.934,5.813,3.222c3.23,1.288,5.168,1.934,6.46,3.221c1.292,0.646,2.584,1.935,3.229,3.223
		C589.4,65.722,589.4,67.655,589.4,69.587L589.4,69.587z"/>
	<path fill-rule="evenodd" clip-rule="evenodd" fill="#EE6E23" stroke="#EE6E23" stroke-width="1.5197" stroke-miterlimit="10" d="
		M117.173,79.898c0,0.644,0,1.288,0,1.933 M117.819,81.831h-0.646l-82.042,0.644c-0.646,0-0.646-0.644-0.646-1.288
		c0,0,0-0.645,0.646-0.645l82.042-0.644h0.646V81.831z"/>
	<rect x="26.087" fill-rule="evenodd" clip-rule="evenodd" fill="#EE6E23" width="14.212" height="77.963"/>
	<rect x="68.077" y="19.974" fill-rule="evenodd" clip-rule="evenodd" fill="#83C157" width="14.858" height="57.989"/>
	<path fill-rule="evenodd" clip-rule="evenodd" fill="#F2A129" d="M47.405,77.32c0,0.644,0,0.644,0.646,0.644h13.566V32.861H47.405
		V77.32z"/>
	<path fill-rule="evenodd" clip-rule="evenodd" fill="#EE6E23" stroke="#EE6E23" stroke-width="1.5197" stroke-miterlimit="10" d="
		M7.354,90.851c0,0.645-0.646,1.288-0.646,1.933 M29.963,106.315l-10.982-29.64l-5.168,16.108H6.707H2.832
		c-0.646,0-1.292-0.645-1.292-0.645c0-0.644,0.646-1.288,1.292-1.288h4.522h5.814l5.814-19.33l10.336,28.995
		C39.653,56.057,31.901,98.583,29.963,106.315L29.963,106.315z"/>
</g>
</svg>
